<?xml version="1.0" standalone="no"?>
<!DOCTYPE svg PUBLIC "-//W3C//DTD SVG 20010904//EN"
 "http://www.w3.org/TR/2001/REC-SVG-20010904/DTD/svg10.dtd">
<svg version="1.0" xmlns="http://www.w3.org/2000/svg"
 width="338.000000pt" height="314.000000pt" viewBox="0 0 338.000000 314.000000"
 preserveAspectRatio="xMidYMid meet">

<g transform="translate(0.000000,314.000000) scale(0.100000,-0.100000)"
fill="#000000" stroke="none">
<path d="M915 2653 c-68 -7 -157 -42 -220 -86 -63 -44 -136 -139 -154 -200
-16 -54 -160 -467 -166 -477 -4 -6 -23 -19 -43 -29 -46 -24 -83 -63 -113 -121
l-24 -45 -3 -507 c-3 -561 -3 -559 60 -598 28 -17 50 -20 156 -20 198 0 215
16 222 225 l5 140 525 3 525 2 1 143 c0 103 5 160 18 207 22 80 73 192 117
257 43 62 142 166 199 208 71 52 198 111 282 131 43 11 78 24 78 29 0 6 -7 28
-15 50 -7 22 -43 125 -79 229 -93 265 -121 311 -237 388 -111 73 -100 71 -624
74 -258 1 -488 0 -510 -3z m985 -319 c36 -31 49 -54 83 -154 14 -41 40 -113
56 -160 17 -47 31 -91 31 -97 0 -10 -145 -13 -689 -13 l-690 0 9 28 c23 78
123 348 137 369 35 53 31 52 550 53 l481 0 32 -26z m-1204 -733 c60 -27 89
-73 89 -141 0 -94 -57 -150 -152 -150 -143 0 -207 168 -101 267 48 45 100 53
164 24z"/>
<path d="M2357 1735 c-195 -39 -388 -199 -462 -383 -150 -372 25 -770 393
-897 91 -31 253 -44 344 -26 75 14 197 62 256 102 282 190 370 587 198 893
-140 248 -428 370 -729 311z m228 -285 c17 -18 21 -38 25 -153 l5 -132 130 -3
c116 -2 132 -5 152 -24 34 -32 32 -99 -3 -127 -24 -19 -40 -21 -155 -21 l-129
0 0 -129 c0 -122 -1 -132 -24 -157 -31 -37 -84 -38 -120 -5 -24 23 -26 30 -28
155 l-3 131 -133 5 c-131 5 -134 5 -158 33 -28 33 -30 56 -9 97 19 37 31 39
180 43 l120 2 2 120 c2 66 5 130 8 142 12 51 98 65 140 23z"/>
</g>
</svg>
